<?xml version="1.0" encoding="utf-8"?>
<svg  version="1.1" baseProfile="tiny" xmlns="http://www.w3.org/2000/svg" width="156.6504" height="83.1104" viewBox="0 0 156.6504 83.1104">
  <text transform="matrix(1 0 0 1 123.6504 15.5605)" font-family="sans" font-size="18">H</text>
  <text transform="matrix(1 0 0 1 123.6504 30.5527)" font-family="sans" font-size="18">N</text>
  <g>
    <path fill="none" d="M26.5,23.1108L1,37.8105v29.4004l25.5,14.7002l25.4502-14.7002V37.8105L26.5,23.1108z M4.6001,65.4111h-1
		V39.6108h1V65.4111z M26.75,78.8105l-0.5-0.8994l22.3501-12.9004l0.5,0.8496L26.75,78.8105z M48.6001,40.0107L26.25,27.1108
		l0.5-0.8999l22.3501,12.9497L48.6001,40.0107z"/>
    <rect x="3.6001" y="39.6108" width="1" height="25.8003"/>
    <polygon points="26.25,77.9111 26.75,78.8105 49.1001,65.8604 48.6001,65.0107 	"/>
    <polygon points="26.25,27.1108 48.6001,40.0107 49.1001,39.1606 26.75,26.2109 	"/>
    <path d="M122.2002,26.6606l-17.7998,10.25l-25.9502-15l-26,15l-25.9502-15L0,37.2109v30.5996l26.5,15.2998l26.4502-15.2998v-30
		l25.5-14.6997l25.4502,14.6997l-2.5,29.7002h6l-2.4502-29.7002l17.75-10.25L122.2002,26.6606z M26.5,81.9111L1,67.2109V37.8105
		l25.5-14.6997l25.4502,14.6997v29.4004L26.5,81.9111z"/>
    <polygon points="138.5498,26.6108 138.0498,27.5107 156.1504,37.9609 156.6504,37.0605 	"/>
  </g>
</svg>
