<?xml version="1.0" encoding="UTF-8"?>
<!DOCTYPE svg PUBLIC "-//W3C//DTD SVG 1.1//EN" "http://www.w3.org/Graphics/SVG/1.1/DTD/svg11.dtd">
<!-- Creator: CorelDRAW 2019 (64-Bit) -->
<svg xmlns="http://www.w3.org/2000/svg" xml:space="preserve" width="165px" height="165px" version="1.1" style="shape-rendering:geometricPrecision; text-rendering:geometricPrecision; image-rendering:optimizeQuality; fill-rule:evenodd; clip-rule:evenodd"
viewBox="0 0 21.67 21.67"
 xmlns:xlink="http://www.w3.org/1999/xlink">
 <defs>
  <style type="text/css">
   <![CDATA[
    .fil0 {fill:#EBECEC}
    .fil2 {fill:#2B2A29}
    .fil1 {fill:#2B2A29;fill-rule:nonzero}
   ]]>
  </style>
 </defs>
 <g id="Layer_x0020_1">
  <metadata id="CorelCorpID_0Corel-Layer"/>
  <g id="_1858643470720">
   <path class="fil0" d="M10.83 0.14c5.91,0 10.7,4.79 10.7,10.69 0,5.91 -4.79,10.7 -10.7,10.7 -5.9,0 -10.69,-4.79 -10.69,-10.7 0,-5.9 4.79,-10.69 10.69,-10.69z"/>
   <path class="fil1" d="M10.83 0c2.99,0 5.7,1.21 7.66,3.17 1.96,1.96 3.18,4.67 3.18,7.66 0,2.99 -1.22,5.7 -3.18,7.66 -1.96,1.96 -4.67,3.18 -7.66,3.18 -2.99,0 -5.7,-1.22 -7.66,-3.18 -1.96,-1.96 -3.17,-4.67 -3.17,-7.66 0,-2.99 1.21,-5.7 3.17,-7.66 1.96,-1.96 4.67,-3.17 7.66,-3.17zm7.47 3.37c-1.91,-1.92 -4.55,-3.1 -7.47,-3.1 -2.91,0 -5.55,1.18 -7.46,3.1 -1.92,1.91 -3.1,4.55 -3.1,7.46 0,2.92 1.18,5.56 3.1,7.47 1.91,1.91 4.55,3.09 7.46,3.09 2.92,0 5.56,-1.18 7.47,-3.09 1.91,-1.91 3.09,-4.55 3.09,-7.47 0,-2.91 -1.18,-5.55 -3.09,-7.46z"/>
   <path class="fil2" d="M15.32 7.96c-0.05,-0.14 -0.03,-0.33 -0.14,-0.42 -0.35,-0.29 -0.78,-0.68 -1.17,-0.91 -0.07,-0.6 -0.83,-0.44 -1.23,-0.69 -0.96,-0.62 -2.09,-0.87 -2.87,-1.7 0.07,0.38 0.41,0.86 1.32,1.56 -1.25,-0.73 -2.62,-0.81 -3.81,-1.84 0.28,0.82 1.2,2.1 2.14,2.35 -0.25,-0.03 -0.51,-0.06 -0.69,-0.13 -1.64,0.21 -2.67,1.01 -3.32,1.93 0.82,-0.9 2.15,-1.15 2.92,-0.6 -0.42,-0.12 -0.94,-0.17 -1.71,0.08 -0.77,0.25 -1.68,1.61 -1.61,2.43 0.16,-1.29 1.51,-1.53 2.29,-1.37 -0.5,0.06 -0.89,0.07 -1.41,0.44 -0.7,0.5 -1.09,2.11 -0.93,3.07 0.08,-1.08 0.61,-2.01 1.73,-2.39 -1.03,0.63 -1.33,1.38 -1.42,1.74 -0.07,0.29 -0.16,1.51 0.02,2.02 -0.15,-0.79 -0.01,-1.46 0.58,-1.94 -0.18,0.26 -0.32,0.44 -0.38,0.97 -0.06,0.52 0.23,1.63 0.53,2.08 -0.23,-0.52 -0.2,-1.08 0,-1.4 -0.07,0.3 -0.05,0.75 0.09,1.1 0.14,0.36 0.5,0.8 0.87,1.16 0.75,0.74 1.7,1.12 2.62,1.28 0,0 0,0 -0.01,0 0.02,0 0.04,0.01 0.06,0.01 0.28,0.05 0.56,0.07 0.84,0.08 1.39,0.05 2.85,-0.41 3.89,-1.36 0.47,-0.43 0.82,-0.96 1.02,-1.55 0.02,-0.06 0.03,-0.11 0.05,-0.17 -0.76,-0.04 -1.33,0.34 -1.6,1.54 -0.37,-0.76 -0.72,-1.82 -1.43,-2.71 -0.01,0.03 -0.02,0.06 -0.04,0.09l0.34 0.39 -0.4 -0.27c-0.05,0.08 -0.1,0.15 -0.16,0.21l0.47 0.54 -0.6 -0.41c-0.06,0.06 -0.12,0.11 -0.19,0.16l0.42 0.7 -0.62 -0.6c-0.07,0.04 -0.14,0.06 -0.21,0.09l0.15 1.12 -0.44 -1.05c-0.07,0.01 -0.14,0.02 -0.21,0.02l-0.12 0.92 -0.12 -0.92c-0.11,0 -0.22,-0.01 -0.32,-0.04l-0.35 0.81 0.13 -0.86c-0.11,-0.03 -0.21,-0.07 -0.31,-0.11l-0.55 0.7 0.35 -0.8c-0.09,-0.05 -0.18,-0.11 -0.26,-0.17l-0.78 0.57 0.59 -0.73c-0.08,-0.07 -0.15,-0.15 -0.22,-0.23l-0.77 0.29 0.65 -0.46c-0.05,-0.07 -0.09,-0.14 -0.13,-0.21l-0.71 0.16 0.63 -0.33c-0.03,-0.08 -0.06,-0.15 -0.08,-0.22l-0.65 -0.01 0.6 -0.15c-0.01,-0.06 -0.03,-0.11 -0.04,-0.17l-0.51 -0.1 0.49 -0.03c-0.01,-0.07 -0.02,-0.13 -0.02,-0.2l-0.42 -0.06 0 0 -0.04 -0.01 0.45 -0.05c-0.04,-0.98 0.48,-1.86 1.49,-2.58 -0.03,-0.04 -0.05,-0.08 -0.08,-0.12l0 0c-0.34,-0.5 -0.66,-1.23 -0.54,-1.84 0,0.44 0.25,0.96 0.54,1.4 0.12,0.23 0.29,0.45 0.53,0.61 1.18,0.9 3.12,-0.25 4.19,0.7 0.23,-0.22 0.49,-0.58 0.88,-0.42 0.18,-0.31 0.08,-0.64 -0.25,-0.99zm2.8 6.1c0.16,0.15 0.31,0.3 0.46,0.45 -0.02,-0.02 -0.04,-0.03 -0.06,-0.04l0.03 0.02c-0.33,-0.24 -0.67,-0.45 -1.01,-0.62 -0.57,-0.28 -1.14,-0.47 -1.66,-0.53 0,0 -0.01,0 -0.02,0 -0.01,0 -0.02,0 -0.03,0 -0.88,-0.09 -1.6,0.2 -1.83,0.97l0 0.01c-0.01,0.02 -0.01,0.04 -0.02,0.06 0,0.01 0,0.01 0,0.02 -0.01,0.02 -0.01,0.04 -0.02,0.06 0,0.01 0,0.01 0,0.02 -0.01,0.02 -0.01,0.05 -0.01,0.08 -0.42,-1.54 -1.79,-3.88 -4.37,-3.91l0 0 0 0 -0.01 -0.01 0 0 0 0 0 0 0 -0.03 -0.01 0 0 0 0 0 0 0 0 -0.01 0 0 0 0 0 0 0 0 0 0 0 -0.01 0 0 0 0 0 -0.01 0 0 0 0 0 0 -0.01 0 0 0 0 -0.01 0 0 0 0 0 0 0 0 0 0 0 -0.01 0 0 0 0 0 0 0 0 0 -0.01 0 0 0 0 0 0 -0.01 0 0 -0.01 0 0 0 0 0 0 0 0 0 0 0 -0.01 0 0 0 0 0 0 0 0 0 -0.01 0 0 0 0 0 0 0 0 0 0 -0.01 -0.01 0 0 0 0 0 0 0 -0.01 0 0 0 0 0 0 0 0 0 0 0 -0.01 0 0 0 0 0 0 0 0 0 0 0 -0.01 0 0 -0.01 0 0 0 0 0 0 0 0 -0.01 0 0 0 0 0 0 0 0 0 0 0 -0.01 0 0 0 0 0 0 0 0 0 0 0 0 0 -0.01 0 0 0 0 0 0 -0.01 0 0 0 0 0 0 0 0 -0.01 0 0 0 0 0 0 0 0 0 0 0 -0.01 0.01 0 0 0 0 0c3.19,-0.26 7.41,0.25 11.27,1.31 -1.9,-0.22 -2.22,0.33 -1.67,0.89 -2.27,-0.03 -1.87,0.54 -1.06,1.38 0.02,0.01 0.03,0.03 0.05,0.04l0 0 0.01 0.01zm-5.79 -7.52l0 0c0.61,0.12 0.68,0.76 1.69,0.75 -0.76,0.19 -1.13,0.19 -1.69,-0.75zm-5.59 0.62c0.09,-0.03 0.17,-0.05 0.26,-0.07 0.53,-0.11 1.12,-0.05 1.57,0.28 0.07,0.05 0.1,0.14 0.06,0.22 -0.04,0.08 -0.13,0.11 -0.21,0.09 -0.55,-0.16 -1.06,-0.1 -1.61,0.07 -0.4,0.14 -0.8,0.6 -1.03,0.95 -0.02,0.02 -0.03,0.05 -0.05,0.07 0.08,-0.05 0.17,-0.1 0.26,-0.14 0.45,-0.19 1.01,-0.25 1.48,-0.15 0.09,0.02 0.15,0.09 0.14,0.18 0,0.09 -0.07,0.16 -0.15,0.17 -0.54,0.06 -0.86,0.07 -1.33,0.41 -0.41,0.29 -0.66,0.99 -0.77,1.47 0.3,-0.5 0.77,-0.89 1.41,-1.11 0.08,-0.03 0.18,0.01 0.21,0.09 0.04,0.08 0.02,0.18 -0.06,0.22 -0.39,0.25 -0.75,0.55 -1.01,0.93 -0.14,0.21 -0.27,0.46 -0.33,0.71 -0.02,0.09 -0.03,0.19 -0.04,0.29 0.1,-0.14 0.22,-0.27 0.36,-0.38 0.07,-0.06 0.17,-0.05 0.24,0.01 0.06,0.06 0.07,0.16 0.02,0.23 -0.05,0.06 -0.1,0.13 -0.14,0.2 -0.14,0.21 -0.19,0.43 -0.22,0.68 -0.02,0.21 0.02,0.52 0.09,0.84 0.03,-0.09 0.07,-0.18 0.12,-0.27 0.05,-0.07 0.14,-0.1 0.22,-0.07 0.08,0.03 0.12,0.12 0.1,0.2 -0.07,0.3 -0.03,0.72 0.08,1 0.15,0.37 0.55,0.81 0.84,1.1 0.68,0.67 1.56,1.05 2.49,1.22 0.01,0 0.02,0 0.03,0.01 0.02,0 0.03,0 0.05,0.01 0.27,0.04 0.54,0.07 0.82,0.08 0.6,0.02 1.21,-0.06 1.78,-0.23 0.73,-0.22 1.42,-0.58 1.99,-1.09 0.42,-0.39 0.75,-0.87 0.94,-1.41 -0.12,0.01 -0.24,0.03 -0.34,0.08 -0.52,0.21 -0.74,0.82 -0.85,1.32 -0.02,0.07 -0.08,0.13 -0.15,0.13 -0.08,0.01 -0.15,-0.03 -0.18,-0.09 -0.21,-0.43 -0.38,-0.88 -0.59,-1.31 -0.13,-0.28 -0.28,-0.57 -0.44,-0.83 -0.02,-0.01 -0.03,-0.01 -0.04,-0.02l-0.1 -0.07 0.24 0.28c0.06,0.07 0.06,0.17 0,0.23 -0.06,0.07 -0.15,0.08 -0.23,0.03l-0.42 -0.28 0.3 0.5c0.05,0.08 0.03,0.18 -0.04,0.23 -0.07,0.06 -0.17,0.05 -0.23,-0.01l-0.51 -0.49 0.13 0.95c0.01,0.09 -0.05,0.17 -0.13,0.19 -0.09,0.03 -0.18,-0.02 -0.21,-0.1l-0.35 -0.83 -0.09 0.68c-0.01,0.09 -0.09,0.15 -0.18,0.15 -0.08,0 -0.16,-0.07 -0.17,-0.15l-0.1 -0.78c-0.02,0 -0.04,-0.01 -0.06,-0.01l-0.29 0.68c-0.03,0.08 -0.12,0.12 -0.21,0.1 -0.08,-0.03 -0.13,-0.11 -0.12,-0.2l0.1 -0.71c-0.02,0 -0.03,-0.01 -0.05,-0.02l-0.47 0.6c-0.06,0.07 -0.15,0.09 -0.23,0.04 -0.08,-0.04 -0.11,-0.14 -0.07,-0.22l0.28 -0.66c-0.01,-0.01 -0.02,-0.02 -0.03,-0.02l-0.67 0.49c-0.07,0.06 -0.17,0.05 -0.23,-0.02 -0.06,-0.06 -0.07,-0.16 -0.01,-0.23l0.48 -0.61c-0.01,-0.01 -0.02,-0.02 -0.03,-0.03l-0.66 0.24c-0.08,0.04 -0.17,0 -0.21,-0.08 -0.05,-0.08 -0.02,-0.17 0.05,-0.22l0.43 -0.31 -0.48 0.11c-0.09,0.02 -0.18,-0.03 -0.21,-0.11 -0.03,-0.09 0.01,-0.18 0.09,-0.22l0.42 -0.22 -0.44 0c-0.09,0 -0.16,-0.07 -0.17,-0.15 -0.01,-0.09 0.04,-0.17 0.13,-0.2l0.2 -0.05 -0.15 -0.03c-0.09,-0.01 -0.15,-0.09 -0.14,-0.18 0,-0.06 0.04,-0.12 0.09,-0.15 -0.05,-0.03 -0.08,-0.08 -0.08,-0.15 0.01,-0.08 0.07,-0.16 0.16,-0.17l0.29 -0.03c0,-0.17 0.02,-0.34 0.06,-0.51 0.18,-0.81 0.72,-1.45 1.37,-1.95 -0.16,-0.24 -0.3,-0.5 -0.4,-0.76 -0.15,-0.37 -0.23,-0.8 -0.16,-1.19 0.02,-0.09 0.1,-0.15 0.19,-0.14 0.09,0.01 0.16,0.08 0.16,0.17 0.01,0.43 0.28,0.95 0.51,1.31 0.01,0 0.01,0.01 0.01,0.01 0.12,0.22 0.28,0.41 0.48,0.55 0,0 0,0 0.01,0 0.11,0.09 0.25,0.16 0.39,0.21 0.45,0.17 1.01,0.13 1.48,0.1 0.73,-0.05 1.57,-0.15 2.19,0.3 0.04,-0.04 0.08,-0.08 0.12,-0.12 0.12,-0.11 0.25,-0.21 0.4,-0.26 0.09,-0.03 0.19,-0.04 0.28,-0.02 0.06,-0.25 -0.11,-0.48 -0.28,-0.66 -0.02,-0.02 -0.03,-0.04 -0.04,-0.07 -0.02,-0.06 -0.03,-0.12 -0.04,-0.18 0,-0.03 -0.01,-0.13 -0.04,-0.16 -0.19,-0.15 -0.37,-0.31 -0.55,-0.46 -0.19,-0.15 -0.39,-0.3 -0.6,-0.42 -0.05,-0.03 -0.08,-0.08 -0.09,-0.14 -0.01,-0.08 -0.03,-0.15 -0.1,-0.21 -0.11,-0.1 -0.34,-0.14 -0.49,-0.17 -0.19,-0.04 -0.39,-0.08 -0.55,-0.18 -0.68,-0.44 -1.44,-0.69 -2.12,-1.1 0.26,0.27 0.56,0.51 0.77,0.67 0.08,0.05 0.09,0.16 0.04,0.23 -0.05,0.08 -0.15,0.1 -0.23,0.06 -0.49,-0.28 -1,-0.47 -1.53,-0.65 -0.63,-0.23 -1.21,-0.45 -1.75,-0.79 0.41,0.7 1.08,1.45 1.74,1.63 0.09,0.02 0.14,0.11 0.13,0.2 -0.02,0.09 -0.1,0.15 -0.19,0.14 -0.22,-0.02 -0.48,-0.05 -0.7,-0.12 -0.79,0.11 -1.5,0.37 -2.11,0.8zm5.62 -0.8c0.18,0.04 0.32,0.11 0.47,0.21 0.16,0.12 0.3,0.27 0.47,0.37 0.23,0.14 0.46,0.18 0.72,0.18 0.09,-0.01 0.17,0.06 0.18,0.15 0.01,0.09 -0.05,0.17 -0.13,0.19 -0.3,0.08 -0.63,0.15 -0.93,0.08 -0.45,-0.11 -0.74,-0.54 -0.96,-0.91 -0.04,-0.06 -0.04,-0.14 0,-0.2 0.04,-0.05 0.11,-0.08 0.18,-0.07zm6.41 6.09c-0.06,-0.12 -0.09,-0.25 -0.05,-0.39 0.07,-0.28 0.34,-0.42 0.68,-0.49 -0.21,-0.05 -0.42,-0.1 -0.63,-0.15 -1.6,-0.35 -3.23,-0.61 -4.86,-0.75 -1.16,-0.11 -2.36,-0.16 -3.54,-0.11 0.9,0.18 1.69,0.65 2.34,1.36 0.53,0.58 0.96,1.3 1.24,2.06 0.35,-0.69 1.12,-0.89 1.9,-0.82 0.01,0 0.02,0 0.03,0 0.01,0.01 0.02,0.01 0.02,0.01 0.56,0.06 1.11,0.25 1.61,0.49 -0.03,-0.04 -0.06,-0.08 -0.08,-0.12 -0.12,-0.16 -0.23,-0.37 -0.17,-0.58 0.07,-0.25 0.34,-0.36 0.57,-0.41 0.17,-0.04 0.36,-0.07 0.54,-0.08 0.13,-0.01 0.27,-0.01 0.4,-0.02z"/>
   <path class="fil1" d="M17.17 15.75l0.11 -0.14 0.98 0.75 -0.1 0.13 -0.99 -0.74zm-1.18 1.22l0.54 -0.5 0.85 0.89 -0.12 0.12 -0.75 -0.79 -0.41 0.39 -0.11 -0.11zm-1.48 1.67c-0.08,-0.15 -0.1,-0.3 -0.06,-0.44 0.05,-0.17 0.16,-0.31 0.33,-0.4 0.17,-0.1 0.34,-0.12 0.51,-0.08 0.17,0.04 0.3,0.15 0.39,0.31 0.08,0.16 0.1,0.33 0.05,0.5 -0.06,0.18 -0.17,0.31 -0.33,0.4 -0.09,0.05 -0.17,0.08 -0.26,0.1 -0.09,0.01 -0.17,0.01 -0.25,-0.02l0.05 -0.16c0.06,0.02 0.12,0.03 0.19,0.02 0.06,-0.01 0.13,-0.03 0.19,-0.07 0.13,-0.07 0.21,-0.17 0.25,-0.3 0.04,-0.13 0.03,-0.26 -0.04,-0.39 -0.07,-0.12 -0.17,-0.2 -0.3,-0.24 -0.13,-0.03 -0.25,-0.01 -0.38,0.06 -0.11,0.06 -0.19,0.15 -0.23,0.25 -0.04,0.11 -0.04,0.21 0.01,0.33l0.41 -0.24 0.07 0.13 -0.55 0.32c-0.02,-0.03 -0.04,-0.05 -0.05,-0.08zm-2.17 0.85c-0.04,-0.18 -0.01,-0.35 0.08,-0.51 0.09,-0.16 0.23,-0.26 0.41,-0.31 0.18,-0.06 0.35,-0.04 0.5,0.05 0.15,0.08 0.25,0.21 0.29,0.39 0.04,0.18 0.02,0.35 -0.07,0.51 -0.1,0.16 -0.23,0.26 -0.41,0.32 -0.18,0.05 -0.35,0.03 -0.5,-0.06 -0.16,-0.08 -0.25,-0.21 -0.3,-0.39zm1.12 -0.33c-0.04,-0.14 -0.11,-0.24 -0.22,-0.31 -0.11,-0.06 -0.24,-0.08 -0.37,-0.04 -0.14,0.04 -0.24,0.12 -0.31,0.24 -0.07,0.12 -0.09,0.25 -0.05,0.39 0.03,0.14 0.1,0.24 0.22,0.31 0.11,0.06 0.23,0.08 0.37,0.04 0.13,-0.04 0.24,-0.12 0.31,-0.24 0.06,-0.12 0.08,-0.25 0.05,-0.39zm-2.3 -0.12l0.16 -0.01 -0.01 1.27 -0.2 0.01 -0.61 -0.96 -0.01 0 0 0.25 0 0.74 -0.17 0.01 0.01 -1.27 0.18 -0.01 0.64 1 0 0 0 -0.24 0.01 -0.79zm-2.97 -0.25l0.16 0.04 -0.43 1.22 -0.19 -0.06 -0.25 -1.12 -0.01 0 -0.07 0.24 -0.25 0.71 -0.16 -0.05 0.43 -1.21 0.16 0.04 0.26 1.18 0.01 0 0.08 -0.24 0.26 -0.75zm-2.93 0.09l0.09 -0.13 0.48 0.29 0.23 -0.35 -0.44 -0.26 0.08 -0.13 0.44 0.26 0.23 -0.35 -0.49 -0.29 0.09 -0.13 0.62 0.37 -0.71 1.1 -0.62 -0.38zm-1.1 -1.07l0.8 -0.83 0.11 0.11 -0.8 0.82 0.26 0.24 -0.12 0.12 -0.61 -0.59 0.11 -0.11 0.25 0.24zm-1.79 -1.99l-0.1 -0.13 1.26 -0.49 0.09 0.14 -0.56 0.71 0.01 0.01 0.85 -0.28 0.09 0.13 -0.87 1.04 -0.09 -0.13 0.69 -0.81 0 -0.01 -0.85 0.27 -0.09 -0.12 0.55 -0.71 0 -0.01 -0.98 0.39zm-0.29 -2.61c0.19,-0.06 0.36,-0.05 0.51,0.02 0.16,0.08 0.27,0.2 0.32,0.38 0.05,0.17 0.03,0.34 -0.06,0.5 -0.09,0.16 -0.22,0.27 -0.4,0.33 -0.18,0.07 -0.35,0.06 -0.51,-0.02 -0.16,-0.07 -0.26,-0.2 -0.31,-0.37 -0.06,-0.18 -0.04,-0.34 0.05,-0.5 0.09,-0.16 0.22,-0.27 0.4,-0.34zm0.32 1.08c0.14,-0.05 0.25,-0.14 0.31,-0.26 0.07,-0.12 0.08,-0.24 0.05,-0.37 -0.04,-0.13 -0.12,-0.22 -0.24,-0.28 -0.12,-0.06 -0.25,-0.06 -0.39,-0.01 -0.14,0.05 -0.25,0.13 -0.31,0.25 -0.07,0.12 -0.08,0.25 -0.04,0.38 0.03,0.13 0.11,0.22 0.23,0.28 0.12,0.05 0.25,0.05 0.39,0.01zm-0.95 -2.2l0.45 -0.05 -0.01 -0.26c-0.01,-0.06 -0.03,-0.12 -0.07,-0.16 -0.05,-0.04 -0.1,-0.06 -0.17,-0.05 -0.06,0 -0.11,0.03 -0.15,0.08 -0.04,0.05 -0.07,0.1 -0.06,0.17l0.01 0.27zm1.12 -0.11l0 0.16 -1.27 0.13 -0.02 -0.44c0,-0.1 0.03,-0.2 0.1,-0.29 0.07,-0.08 0.16,-0.13 0.26,-0.14 0.09,-0.01 0.17,0.01 0.24,0.07 0.07,0.05 0.12,0.11 0.14,0.2l0.01 0 0.5 -0.4 0.01 0 0.01 0.19 -0.51 0.39 0.01 0.18 0.52 -0.05zm-1.13 -2.39l0.03 -0.21 0.01 0.01 0.47 0.51 0.78 -0.43 0.01 0 -0.03 0.2 -0.66 0.36 0.2 0.21 0.36 0.03 -0.02 0.17 -1.26 -0.12 0.02 -0.16 0.65 0.06 0 -0.01 -0.56 -0.62zm2.57 -3.03l-0.09 0.14 -1.03 -0.7 0.12 -0.16 1.17 0.02 0 0 -0.2 -0.13 -0.6 -0.41 0.1 -0.13 1.02 0.69 -0.1 0.14 -1.22 -0.02 -0.01 0 0.21 0.13 0.63 0.43zm0.83 -2.5l0.2 0.56 0.33 -0.28 -0.53 -0.29 0 0.01zm0.37 1.05l-0.14 0.12 -0.43 -1.26 0.15 -0.12 1.17 0.61 -0.14 0.12 -0.31 -0.17 -0.42 0.36 0.12 0.34zm1.22 -2.26l0.52 0.95 -0.15 0.09 -0.51 -0.96 -0.32 0.18 -0.07 -0.13 0.78 -0.45 0.07 0.14 -0.32 0.18zm1.78 0.34l-0.15 0.06 -0.41 -1.17 0.15 -0.06 0.41 1.17zm2.05 -1.18c0.02,0.19 -0.02,0.36 -0.13,0.5 -0.11,0.15 -0.25,0.25 -0.43,0.28 -0.19,0.04 -0.35,0 -0.49,-0.1 -0.15,-0.1 -0.23,-0.24 -0.25,-0.42 -0.03,-0.19 0.01,-0.35 0.12,-0.5 0.11,-0.15 0.25,-0.24 0.44,-0.28 0.18,-0.04 0.34,0 0.49,0.1 0.14,0.1 0.22,0.24 0.25,0.42zm-1.14 0.22c0.02,0.15 0.08,0.26 0.19,0.33 0.1,0.08 0.23,0.1 0.36,0.08 0.14,-0.03 0.25,-0.1 0.33,-0.21 0.08,-0.11 0.11,-0.24 0.09,-0.38 -0.02,-0.15 -0.08,-0.26 -0.19,-0.33 -0.1,-0.08 -0.22,-0.1 -0.36,-0.08 -0.14,0.03 -0.25,0.1 -0.33,0.21 -0.08,0.11 -0.11,0.24 -0.09,0.38zm2.27 0.37l-0.16 -0.01 0.13 -1.27 0.2 0.01 0.51 1.02 0.01 0 0.02 -0.25 0.08 -0.74 0.16 0.01 -0.13 1.27 -0.18 -0.01 -0.53 -1.07 -0.01 0 -0.02 0.25 -0.08 0.79zm2.39 -0.14l-0.54 -0.13 0.04 -0.13 0.54 0.13 -0.04 0.13zm1.56 0.8c-0.05,0.1 -0.13,0.16 -0.24,0.19 -0.1,0.02 -0.21,0.01 -0.31,-0.04 -0.1,-0.04 -0.16,-0.11 -0.21,-0.2 -0.04,-0.09 -0.05,-0.19 -0.02,-0.3l0.17 0.01c-0.01,0.04 -0.02,0.08 -0.01,0.11 0,0.04 0.01,0.07 0.02,0.1 0.01,0.03 0.03,0.06 0.05,0.08 0.02,0.03 0.04,0.05 0.08,0.06 0.06,0.03 0.12,0.04 0.18,0.03 0.06,-0.02 0.11,-0.06 0.14,-0.11 0.03,-0.05 0.03,-0.1 0.01,-0.15 -0.01,-0.05 -0.06,-0.11 -0.13,-0.18 -0.07,-0.08 -0.12,-0.13 -0.13,-0.15 -0.09,-0.12 -0.1,-0.24 -0.04,-0.36 0.05,-0.09 0.12,-0.14 0.21,-0.17 0.1,-0.03 0.2,-0.02 0.3,0.02 0.08,0.04 0.15,0.1 0.19,0.18 0.04,0.07 0.05,0.15 0.04,0.22l-0.17 0c0.01,-0.05 0,-0.1 -0.02,-0.15 -0.02,-0.04 -0.06,-0.08 -0.11,-0.1 -0.06,-0.03 -0.11,-0.04 -0.17,-0.02 -0.05,0.01 -0.09,0.04 -0.12,0.09 -0.02,0.04 -0.02,0.08 -0.01,0.12 0.02,0.05 0.08,0.12 0.17,0.21 0.09,0.09 0.15,0.18 0.17,0.26 0.01,0.08 0,0.16 -0.04,0.25zm1.59 0.11l-0.71 0.9 -0.13 -0.09 0.72 -0.9 -0.28 -0.21 0.1 -0.13 0.68 0.52 -0.1 0.12 -0.28 -0.21zm1.21 1.23l-0.58 0.24 0.27 0.31 0.31 -0.54 0 -0.01zm-1.08 0.44l-0.12 -0.13 1.3 -0.51 0.12 0.14 -0.69 1.21 -0.12 -0.13 0.19 -0.33 -0.33 -0.39 -0.35 0.14zm2.17 1.1l-0.99 0.57 -0.08 -0.14 1 -0.57 -0.17 -0.3 0.14 -0.08 0.41 0.75 -0.14 0.08 -0.17 -0.31zm0.91 1.93l-0.15 0.05 -0.16 -0.54 -0.39 0.13 0.14 0.5 -0.14 0.05 -0.15 -0.5 -0.39 0.14 0.16 0.54 -0.15 0.06 -0.2 -0.7 1.22 -0.43 0.21 0.7z"/>
   <path class="fil2" d="M2.52 7.7c0.06,0 0.11,0.05 0.11,0.11 0,0.05 -0.05,0.1 -0.11,0.1 -0.06,0 -0.1,-0.05 -0.1,-0.1 0,-0.06 0.04,-0.11 0.1,-0.11z"/>
  </g>
 </g>
</svg>
