<?xml version="1.0" encoding="UTF-8"?>
<!DOCTYPE svg PUBLIC "-//W3C//DTD SVG 1.1//EN" "http://www.w3.org/Graphics/SVG/1.1/DTD/svg11.dtd">
<!-- Creator: CorelDRAW 2019 (64-Bit) -->
<svg xmlns="http://www.w3.org/2000/svg" xml:space="preserve" width="1786px" height="1786px" version="1.1" style="shape-rendering:geometricPrecision; text-rendering:geometricPrecision; image-rendering:optimizeQuality; fill-rule:evenodd; clip-rule:evenodd"
viewBox="0 0 101.29 101.29"
 xmlns:xlink="http://www.w3.org/1999/xlink">
 <defs>
  <style type="text/css">
   <![CDATA[
    .str0 {stroke:#2B2A29;stroke-width:0.13;stroke-miterlimit:22.9256}
    .fil1 {fill:#FEFEFE}
    .fil0 {fill:#29316F}
   ]]>
  </style>
 </defs>
 <g id="Layer_x0020_1">
  <metadata id="CorelCorpID_0Corel-Layer"/>
  <g id="_2166784901440">
   <circle class="fil0 str0" cx="50.64" cy="50.64" r="50.58"/>
   <g>
    <path class="fil1" d="M73.13 33.98c-0.22,-0.71 -0.11,-1.65 -0.67,-2.12 -1.8,-1.5 -3.98,-3.45 -6,-4.62 -0.36,-3.09 -4.21,-2.26 -6.22,-3.55 -4.89,-3.12 -10.67,-4.43 -14.64,-8.65 0.36,1.94 2.1,4.39 6.74,7.93 -6.37,-3.67 -13.36,-4.12 -19.44,-9.35 1.45,4.16 6.13,10.68 10.92,11.96 -1.28,-0.12 -2.59,-0.3 -3.51,-0.64 -8.35,1.06 -13.62,5.14 -16.92,9.85 4.19,-4.62 10.97,-5.91 14.88,-3.08 -2.16,-0.63 -4.79,-0.89 -8.73,0.39 -3.93,1.28 -8.53,8.19 -8.17,12.39 0.8,-6.55 7.67,-7.78 11.63,-6.97 -2.54,0.28 -4.51,0.34 -7.19,2.26 -3.55,2.52 -5.55,10.71 -4.7,15.6 0.39,-5.49 3.07,-10.25 8.77,-12.19 -5.2,3.25 -6.77,7.06 -7.21,8.88 -0.35,1.47 -0.83,7.68 0.13,10.32 -0.81,-4.06 -0.08,-7.45 2.95,-9.88 -0.96,1.33 -1.64,2.24 -1.96,4.91 -0.31,2.66 1.16,8.32 2.7,10.62 -1.15,-2.64 -0.99,-5.5 0.01,-7.12 -0.35,1.48 -0.25,3.81 0.45,5.6 0.7,1.8 2.55,4.03 4.45,5.9 3.8,3.74 8.64,5.69 13.32,6.51 -16.74,-8.3 -14.32,-35.32 1.26,-42.04 -1.75,-2.55 -3.47,-6.33 -2.85,-9.5 0.03,2.22 1.28,4.88 2.75,7.13 0.61,1.17 1.48,2.26 2.72,3.12 6.02,4.58 15.88,-1.28 21.33,3.56 1.19,-1.12 2.5,-2.99 4.5,-2.18 0.91,-1.57 0.41,-3.26 -1.3,-5.04zm-15.22 -7.24l0 0c3.14,0.61 3.47,3.9 8.64,3.86 -3.91,0.97 -5.76,0.97 -8.64,-3.86z"/>
    <path class="fil1" d="M66.37 71.54c-1.85,-3.85 -3.67,-9.27 -7.28,-13.79 -0.06,0.15 -0.12,0.31 -0.19,0.47l1.73 1.98 -2.05 -1.38c-0.23,0.38 -0.5,0.73 -0.79,1.06l2.37 2.73 -3.03 -2.05c-0.32,0.28 -0.66,0.54 -1.01,0.77l2.15 3.61 -3.14 -3.06c-0.35,0.17 -0.71,0.31 -1.08,0.43l0.78 5.73 -2.25 -5.37c-0.35,0.06 -0.7,0.1 -1.06,0.12l-0.65 4.7 -0.58 -4.69c-0.56,-0.03 -1.11,-0.1 -1.66,-0.2l-1.75 4.08 0.63 -4.35c-0.53,-0.16 -1.05,-0.35 -1.55,-0.57l-2.81 3.58 1.76 -4.11c-0.46,-0.25 -0.89,-0.53 -1.3,-0.84l-3.95 2.91 2.98 -3.72c-0.4,-0.37 -0.76,-0.77 -1.1,-1.18l-3.94 1.47 3.3 -2.35c-0.23,-0.34 -0.45,-0.7 -0.64,-1.07l-3.64 0.81 3.22 -1.68c-0.16,-0.37 -0.3,-0.74 -0.42,-1.12l-3.29 -0.01 3.05 -0.81c-0.08,-0.27 -0.14,-0.55 -0.19,-0.83l-2.64 -0.52 2.52 -0.17c-0.05,-0.33 -0.08,-0.66 -0.11,-0.99l-2.14 -0.34 0.02 0 -0.21 -0.04 2.28 -0.26c-0.21,-5 2.47,-9.44 7.6,-13.13 -0.14,-0.2 -0.28,-0.4 -0.42,-0.61 -0.14,0.04 -0.28,0.09 -0.41,0.14 -5.54,2.39 -9.43,7.43 -11.34,13.05 -1.95,5.74 -2,12.23 0.17,17.92 1.07,2.79 2.7,5.38 4.84,7.48 1.12,1.1 2.38,2.06 3.73,2.86 0.01,0.01 0.01,0.01 0.01,0.01 0.54,0.32 1.48,0.66 2.1,0.77 1.41,0.23 2.85,0.37 4.28,0.42 7.09,0.24 14.54,-2.13 19.83,-6.96 2.36,-2.15 4.18,-4.85 5.17,-7.89 0.09,-0.28 0.18,-0.56 0.25,-0.85 -3.86,-0.2 -6.79,1.72 -8.15,7.84z"/>
    <path class="fil1" d="M43.56 46.59c16.27,-1.33 37.79,1.26 57.44,6.68 -9.64,-1.12 -11.27,1.67 -8.48,4.52 -13.7,-0.18 -8.34,3.94 -2.92,9.49 -9.56,-7.12 -22.05,-8.88 -23.44,0.32 -2.12,-7.83 -9.08,-19.73 -22.26,-19.9 -0.07,-0.23 -0.27,-0.88 -0.34,-1.11z"/>
    <path class="fil1" d="M43.59 46.59l0 0c16.64,-0.68 37.16,3.19 48.89,11.17 -13.69,-0.19 -8.3,3.97 -2.88,9.52 -9.67,-7.17 -22.05,-8.88 -23.44,0.32 -2.12,-7.83 -9.08,-19.73 -22.26,-19.9 -0.07,-0.22 -0.26,-0.82 -0.33,-1.07l0.02 -0.04z"/>
    <path class="fil1" d="M43.59 46.59c18.91,-0.08 34.71,9.15 46.16,20.77 -9.49,-7.2 -22.2,-8.96 -23.59,0.24 -2.12,-7.83 -9.08,-19.73 -22.26,-19.9 -0.07,-0.22 -0.26,-0.82 -0.33,-1.07l0 -0.01 0.02 -0.03z"/>
   </g>
  </g>
 </g>
</svg>
