<?xml version="1.0" encoding="UTF-8"?>
<!DOCTYPE svg PUBLIC "-//W3C//DTD SVG 1.1//EN" "http://www.w3.org/Graphics/SVG/1.1/DTD/svg11.dtd">
<!-- Creator: CorelDRAW 2019 (64-Bit) -->
<svg xmlns="http://www.w3.org/2000/svg" xml:space="preserve" width="5909px" height="1783px" version="1.1" style="shape-rendering:geometricPrecision; text-rendering:geometricPrecision; image-rendering:optimizeQuality; fill-rule:evenodd; clip-rule:evenodd"
viewBox="0 0 1556.43 469.78"
 xmlns:xlink="http://www.w3.org/1999/xlink">
 <defs>
  <style type="text/css">
   <![CDATA[
    .fil1 {fill:#FEFEFE}
    .fil0 {fill:#FEFEFE;fill-rule:nonzero}
   ]]>
  </style>
 </defs>
 <g id="Layer_x0020_1">
  <metadata id="CorelCorpID_0Corel-Layer"/>
  <g id="_2164792097856">
   <g>
    <g>
     <polygon class="fil0" points="0,92.91 80.32,92.91 80.32,461.55 0,461.55 "/>
     <polygon class="fil0" points="154.45,92.91 234.77,92.91 234.77,385.35 389.23,385.35 389.23,461.55 154.45,461.55 "/>
     <polygon class="fil0" points="1251.64,92.91 1344.31,92.91 1477.15,331.77 1477.15,92.91 1556.43,92.91 1556.43,461.55 1472,461.55 1330.93,220.59 1330.93,461.55 1251.64,461.55 "/>
     <path class="fil0" d="M1184.45 201.54c-9.78,-23.34 -23.35,-43.67 -40.67,-61.01 -17.34,-17.33 -37.85,-30.97 -61.53,-40.93 -23.68,-9.95 -49.43,-14.93 -77.23,-14.93 -27.8,0 -53.54,4.98 -77.23,14.93 -23.68,9.96 -44.19,23.6 -61.52,40.93 -17.34,17.34 -30.9,37.67 -40.68,61.01 -4.89,11.68 -8.56,23.83 -11.01,36.45 27.39,4 54.04,8.71 78.88,14.03 1.46,-7.87 3.63,-15.35 6.53,-22.42 5.83,-14.24 13.9,-26.51 24.2,-36.81 10.29,-10.3 22.31,-18.19 36.04,-23.68 13.72,-5.49 28.65,-8.24 44.79,-8.24 15.79,0 30.64,2.75 44.54,8.24 13.9,5.49 26,13.38 36.29,23.68 10.3,10.3 18.36,22.57 24.2,36.81 5.84,14.25 8.76,30.12 8.76,47.63 0,17.5 -2.92,33.38 -8.76,47.62 -5.84,14.25 -13.9,26.51 -24.2,36.81 -10.29,10.3 -22.39,18.2 -36.29,23.69 -13.9,5.49 -28.75,8.23 -44.54,8.23 -16.14,0 -31.07,-2.74 -44.79,-8.23 -13.73,-5.49 -25.75,-13.39 -36.04,-23.69 -9.03,-9.03 -16.34,-19.57 -21.94,-31.63 -86.7,-2.2 -20.72,24.93 6.13,80.11 -23.91,-9.82 -47.55,-21.63 -69.79,-31.6 7.8,12.93 17.02,24.73 27.68,35.38 17.33,17.34 37.84,30.98 61.52,40.93 23.69,9.96 49.43,14.93 77.23,14.93 27.8,0 53.55,-4.97 77.23,-14.93 23.68,-9.95 44.19,-23.59 61.53,-40.93 17.32,-17.33 30.89,-37.66 40.67,-61.01 9.78,-23.34 14.67,-48.56 14.67,-75.68 0,-27.12 -4.89,-52.34 -14.67,-75.69z"/>
    </g>
   </g>
   <g>
    <path class="fil1" d="M760.72 145.26c-1.63,-5.06 -0.79,-11.74 -4.85,-15.13 -12.79,-10.7 -28.36,-24.58 -42.78,-32.92 -2.54,-22.1 -30.05,-16.15 -44.4,-25.33 -34.91,-22.29 -76.17,-31.6 -104.48,-61.78 2.6,13.85 15.01,31.36 48.14,56.63 -45.51,-26.22 -95.34,-29.4 -138.77,-66.73 10.37,29.71 43.72,76.24 77.95,85.36 -9.11,-0.84 -18.48,-2.15 -25.04,-4.58 -59.6,7.56 -97.19,36.65 -120.78,70.27 29.91,-32.92 78.28,-42.14 106.17,-21.96 -15.37,-4.48 -34.13,-6.36 -62.24,2.78 -28.12,9.15 -60.92,58.47 -58.35,88.42 5.75,-46.75 54.73,-55.51 83.01,-49.73 -18.11,2.01 -32.18,2.45 -51.34,16.12 -25.28,18.02 -39.59,76.46 -33.51,111.33 2.79,-39.14 21.91,-73.11 62.6,-86.95 -37.12,23.14 -48.32,50.33 -51.45,63.31 -2.54,10.55 -5.98,54.85 0.89,73.65 -5.77,-28.95 -0.55,-53.18 21.05,-70.45 -6.86,9.46 -11.72,15.97 -13.96,34.98 -2.25,19.02 8.27,59.41 19.29,75.84 -8.23,-18.9 -7.12,-39.24 0.02,-50.85 -2.44,10.6 -1.76,27.2 3.23,40.01 4.99,12.81 18.18,28.73 31.78,42.09 27.07,26.66 61.64,40.58 95.07,46.45 -119.47,-59.21 -102.25,-252.04 8.99,-299.99 -12.52,-18.24 -24.81,-45.21 -20.4,-67.8 0.22,15.81 9.19,34.78 19.69,50.88 4.33,8.34 10.53,16.07 19.38,22.23 42.95,32.68 113.34,-9.16 152.22,25.42 8.52,-8.02 17.86,-21.37 32.09,-15.54 6.53,-11.25 2.96,-23.28 -9.22,-36.03zm-108.62 -51.6l0 0c22.38,4.34 24.76,27.83 61.6,27.48 -27.86,6.95 -41.08,6.97 -61.6,-27.48z"/>
    <path class="fil1" d="M712.44 413.34c-13.23,-27.46 -26.18,-66.18 -51.97,-98.44 -0.39,1.12 -0.81,2.25 -1.33,3.38l12.31 14.11 -14.6 -9.84c-1.64,2.71 -3.53,5.24 -5.62,7.62l16.93 19.42 -21.68 -14.62c-2.26,2.04 -4.67,3.88 -7.19,5.52l15.37 25.79 -22.42 -21.85c-2.49,1.19 -5.07,2.22 -7.71,3.08l5.56 40.89 -16.03 -38.34c-2.5,0.41 -5.04,0.69 -7.59,0.84l-4.63 33.52 -4.17 -33.46c-3.94,-0.19 -7.9,-0.67 -11.82,-1.42l-12.5 29.14 4.53 -31.08c-3.78,-1.11 -7.49,-2.47 -11.1,-4.07l-20.04 25.56 12.54 -29.3c-3.26,-1.82 -6.33,-3.83 -9.23,-5.99l-28.23 20.76 21.28 -26.56c-2.84,-2.64 -5.44,-5.47 -7.84,-8.44l-28.11 10.52 23.52 -16.76c-1.66,-2.49 -3.19,-5.05 -4.58,-7.69l-25.93 5.83 22.97 -12.01c-1.14,-2.61 -2.15,-5.29 -3.04,-8.01l-23.44 -0.09 21.73 -5.73c-0.51,-1.96 -0.97,-3.94 -1.36,-5.94l-18.8 -3.75 17.97 -1.16c-0.34,-2.34 -0.6,-4.7 -0.78,-7.07l-15.31 -2.45 0.17 -0.02 -1.5 -0.24 16.26 -1.87c-1.49,-35.71 17.62,-67.39 54.28,-93.71 -1.01,-1.39 -2.02,-2.84 -3.03,-4.34 -1.01,0.3 -2,0.63 -2.92,1.03 -39.51,17.03 -67.29,53 -80.91,93.08 -13.92,40.96 -14.3,87.29 1.2,127.88 7.63,19.96 19.24,38.4 34.52,53.39 8.02,7.86 17,14.73 26.66,20.46 0.03,0.01 0.05,0.03 0.07,0.04 3.82,2.26 10.56,4.73 14.94,5.46 10.12,1.68 20.34,2.68 30.58,3.03 50.57,1.69 103.73,-15.17 141.53,-49.66 16.83,-15.36 29.81,-34.6 36.9,-56.31 0.65,-2 1.23,-4.02 1.79,-6.04 -27.58,-1.48 -48.47,12.21 -58.2,55.91z"/>
    <path class="fil1" d="M549.63 235.29c116.13,-9.52 269.7,8.98 409.93,47.69 -68.78,-8 -80.4,11.88 -60.52,32.26 -97.71,-1.31 -59.5,28.13 -20.79,67.71 -68.24,-50.78 -157.35,-63.35 -167.32,2.25 -15.13,-55.86 -64.78,-140.77 -158.87,-141.99 -0.5,-1.62 -1.92,-6.31 -2.43,-7.92z"/>
    <path class="fil1" d="M549.88 235.27l0.03 -0.01c118.69,-4.85 265.19,22.79 348.87,79.71 -97.72,-1.31 -59.24,28.4 -20.53,67.98 -69.04,-51.18 -157.35,-63.35 -167.32,2.25 -15.13,-55.86 -64.78,-140.77 -158.87,-141.99 -0.48,-1.54 -1.79,-5.87 -2.35,-7.67l0.17 -0.27z"/>
    <path class="fil1" d="M549.88 235.27c134.95,-0.53 247.71,65.31 329.44,148.21 -67.72,-51.31 -158.42,-63.88 -168.39,1.72 -15.13,-55.86 -64.78,-140.77 -158.87,-141.99 -0.48,-1.54 -1.79,-5.87 -2.35,-7.67l0.02 -0.03 0.15 -0.24z"/>
   </g>
  </g>
 </g>
</svg>
