<?xml version="1.0" encoding="UTF-8"?>
<!DOCTYPE svg PUBLIC "-//W3C//DTD SVG 1.1//EN" "http://www.w3.org/Graphics/SVG/1.1/DTD/svg11.dtd">
<!-- Creator: CorelDRAW 2019 (64-Bit) -->
<svg xmlns="http://www.w3.org/2000/svg" xml:space="preserve" width="366px" height="366px" version="1.1" style="shape-rendering:geometricPrecision; text-rendering:geometricPrecision; image-rendering:optimizeQuality; fill-rule:evenodd; clip-rule:evenodd"
viewBox="0 0 6.63 6.63"
 xmlns:xlink="http://www.w3.org/1999/xlink">
 <defs>
  <style type="text/css">
   <![CDATA[
    .fil2 {fill:#2B2A29}
    .fil0 {fill:#EBECEC}
    .fil1 {fill:#2B2A29;fill-rule:nonzero}
   ]]>
  </style>
 </defs>
 <g id="Layer_x0020_1">
  <metadata id="CorelCorpID_0Corel-Layer"/>
  <g id="_2164788256816">
   <g id="_1858643470720">
    <path class="fil0" d="M3.31 0.04c1.81,0 3.27,1.47 3.27,3.27 0,1.81 -1.46,3.27 -3.27,3.27 -1.8,0 -3.27,-1.46 -3.27,-3.27 0,-1.8 1.47,-3.27 3.27,-3.27z"/>
    <path class="fil1" d="M3.31 0c0.92,0 1.74,0.37 2.34,0.97 0.6,0.6 0.98,1.43 0.98,2.34 0,0.92 -0.38,1.74 -0.98,2.34 -0.6,0.6 -1.42,0.98 -2.34,0.98 -0.91,0 -1.74,-0.38 -2.34,-0.98 -0.6,-0.6 -0.97,-1.42 -0.97,-2.34 0,-0.91 0.37,-1.74 0.97,-2.34 0.6,-0.6 1.43,-0.97 2.34,-0.97zm2.29 1.03c-0.59,-0.59 -1.4,-0.95 -2.29,-0.95 -0.89,0 -1.7,0.36 -2.28,0.95 -0.59,0.58 -0.95,1.39 -0.95,2.28 0,0.89 0.36,1.7 0.95,2.29 0.58,0.58 1.39,0.94 2.28,0.94 0.89,0 1.7,-0.36 2.29,-0.94 0.58,-0.59 0.94,-1.4 0.94,-2.29 0,-0.89 -0.36,-1.7 -0.94,-2.28z"/>
    <path class="fil2" d="M4.68 2.43c-0.01,-0.04 0,-0.1 -0.04,-0.12 -0.11,-0.09 -0.24,-0.21 -0.36,-0.28 -0.02,-0.19 -0.25,-0.14 -0.37,-0.21 -0.3,-0.19 -0.64,-0.27 -0.88,-0.52 0.02,0.11 0.13,0.26 0.4,0.47 -0.38,-0.22 -0.8,-0.24 -1.16,-0.56 0.08,0.25 0.37,0.64 0.65,0.72 -0.07,-0.01 -0.15,-0.02 -0.21,-0.04 -0.5,0.06 -0.81,0.31 -1.01,0.59 0.25,-0.28 0.65,-0.35 0.89,-0.18 -0.13,-0.04 -0.29,-0.06 -0.52,0.02 -0.24,0.08 -0.52,0.49 -0.5,0.74 0.05,-0.39 0.47,-0.46 0.71,-0.41 -0.16,0.01 -0.28,0.02 -0.44,0.13 -0.21,0.15 -0.33,0.64 -0.28,0.94 0.02,-0.33 0.19,-0.62 0.53,-0.73 -0.32,0.19 -0.41,0.42 -0.44,0.53 -0.02,0.09 -0.04,0.46 0.01,0.62 -0.05,-0.24 0,-0.45 0.18,-0.6 -0.06,0.08 -0.1,0.14 -0.12,0.3 -0.02,0.16 0.07,0.5 0.16,0.64 -0.07,-0.16 -0.06,-0.33 0,-0.43 -0.02,0.09 -0.01,0.23 0.03,0.34 0.04,0.11 0.15,0.24 0.27,0.35 0.23,0.23 0.52,0.34 0.8,0.39 0,0 0,0 0,0 0,0 0.01,0 0.01,0 0.09,0.02 0.17,0.03 0.26,0.03 0.43,0.01 0.87,-0.13 1.19,-0.42 0.14,-0.13 0.25,-0.29 0.31,-0.47 0.01,-0.02 0.01,-0.03 0.02,-0.05 -0.24,-0.02 -0.41,0.1 -0.49,0.47 -0.12,-0.23 -0.22,-0.56 -0.44,-0.83 0,0.01 -0.01,0.02 -0.01,0.03l0.1 0.12 -0.12 -0.09c-0.02,0.03 -0.03,0.05 -0.05,0.07l0.14 0.16 -0.18 -0.12c-0.02,0.02 -0.04,0.03 -0.06,0.05l0.13 0.21 -0.19 -0.18c-0.02,0.01 -0.04,0.02 -0.06,0.02l0.04 0.35 -0.13 -0.32c-0.02,0 -0.04,0 -0.06,0l-0.04 0.28 -0.04 -0.28c-0.03,0 -0.07,0 -0.1,-0.01l-0.1 0.25 0.04 -0.27c-0.04,0 -0.07,-0.02 -0.1,-0.03l-0.17 0.21 0.11 -0.24c-0.03,-0.02 -0.05,-0.03 -0.08,-0.05l-0.24 0.17 0.18 -0.22c-0.02,-0.02 -0.04,-0.05 -0.06,-0.07l-0.24 0.09 0.2 -0.14c-0.02,-0.02 -0.03,-0.05 -0.04,-0.07l-0.22 0.05 0.19 -0.1c0,-0.02 -0.01,-0.05 -0.02,-0.07l-0.2 0 0.19 -0.05c-0.01,-0.01 -0.01,-0.03 -0.02,-0.05l-0.15 -0.03 0.15 -0.01c-0.01,-0.02 -0.01,-0.04 -0.01,-0.06l-0.13 -0.02 0 0 -0.01 0 0.14 -0.02c-0.01,-0.29 0.14,-0.56 0.45,-0.78 -0.01,-0.02 -0.01,-0.03 -0.02,-0.04l0 0c-0.11,-0.15 -0.2,-0.38 -0.17,-0.56 0,0.13 0.08,0.29 0.17,0.42 0.04,0.07 0.09,0.14 0.16,0.19 0.36,0.28 0.95,-0.08 1.28,0.22 0.07,-0.07 0.15,-0.18 0.27,-0.13 0.06,-0.1 0.03,-0.2 -0.08,-0.31l0 0zm0.86 1.87c0.05,0.05 0.1,0.09 0.14,0.14 0,-0.01 -0.01,-0.01 -0.02,-0.02l0.01 0.01c-0.1,-0.07 -0.2,-0.14 -0.31,-0.19 -0.17,-0.08 -0.35,-0.14 -0.5,-0.16 0,0 -0.01,0 -0.01,0 0,0 -0.01,0 -0.01,0 -0.27,-0.03 -0.49,0.06 -0.56,0.3l0 0c0,0.01 0,0.01 -0.01,0.02 0,0 0,0 0,0 0,0.01 0,0.02 0,0.02 0,0 0,0 0,0.01 0,0 0,0.01 0,0.02 -0.13,-0.47 -0.55,-1.18 -1.34,-1.19l0 0 0 0 0 -0.01 0 0 0 0 0 0 0 -0.01 -0.01 0 0 0 0 0 0 0 0 0 0 0 0 0 0 0 0 0 0 0 0 0 0 0 0 0 0 0 0 0 0 0 0 0 0 0 0 0 0 -0.01 0 0 0 0 0 0 0 0 0 0 0 0 0 0 0 0 0 0 0 0 0 0 0 0 0 0 0 0 0 0 0 -0.01 0 0 0 0 0 0 0 0 0 0 0 0 0 0 0 0 0 0 0 0 0 0 0 0 0 0 0 0 0 0 0 0 -0.01 -0.01 0 0 0 0 0 0 0 0 0 0 0 0 0 0 0 0 0 0 0 0 0 0 0 0 0 0 0 0 0 0 0 -0.01 0 0 0 0 0 0 0 0 0 0 0 0 0 0 0 0 0 0 0 0 0 0 0 0 0 0 0 0 0 0 0 0 0 0 0 0 0 0 0 0 0 0 0 0 0 0 0 0 0 0 0 0 0 -0.01 0 0 0 0 0 0 0 0 0 0 0 0 0 0 0 0 0 0c0.98,-0.08 2.27,0.08 3.45,0.4 -0.58,-0.07 -0.68,0.1 -0.51,0.27 -0.7,-0.01 -0.58,0.17 -0.33,0.42 0.01,0.01 0.01,0.01 0.02,0.02l0 0 0 0 0 0zm-1.77 -2.3l0 0c0.19,0.04 0.21,0.23 0.52,0.23 -0.24,0.06 -0.35,0.06 -0.52,-0.23zm-1.71 0.19c0.03,-0.01 0.05,-0.02 0.08,-0.02 0.16,-0.04 0.34,-0.02 0.48,0.08 0.02,0.02 0.03,0.05 0.02,0.07 -0.01,0.03 -0.04,0.03 -0.07,0.03 -0.16,-0.05 -0.32,-0.03 -0.49,0.02 -0.12,0.04 -0.24,0.18 -0.31,0.29 -0.01,0.01 -0.01,0.02 -0.02,0.02 0.03,-0.01 0.05,-0.03 0.08,-0.04 0.14,-0.06 0.31,-0.08 0.45,-0.05 0.03,0.01 0.05,0.03 0.05,0.06 0,0.03 -0.02,0.05 -0.05,0.05 -0.16,0.02 -0.26,0.02 -0.41,0.13 -0.12,0.08 -0.2,0.3 -0.23,0.45 0.09,-0.16 0.23,-0.28 0.43,-0.34 0.02,-0.01 0.06,0 0.06,0.02 0.02,0.03 0.01,0.06 -0.01,0.07 -0.12,0.08 -0.23,0.17 -0.31,0.28 -0.05,0.07 -0.09,0.15 -0.1,0.22 -0.01,0.03 -0.01,0.06 -0.02,0.09 0.03,-0.04 0.07,-0.08 0.11,-0.12 0.03,-0.01 0.06,-0.01 0.08,0.01 0.02,0.02 0.02,0.05 0,0.07 -0.01,0.02 -0.03,0.04 -0.04,0.06 -0.04,0.06 -0.06,0.13 -0.07,0.21 0,0.06 0.01,0.16 0.03,0.25 0.01,-0.02 0.02,-0.05 0.04,-0.08 0.01,-0.02 0.04,-0.03 0.07,-0.02 0.02,0.01 0.03,0.04 0.03,0.06 -0.03,0.09 -0.01,0.22 0.02,0.31 0.05,0.11 0.17,0.24 0.26,0.33 0.2,0.21 0.47,0.32 0.76,0.38 0,0 0,0 0.01,0 0,0 0.01,0 0.01,0 0.09,0.01 0.17,0.02 0.25,0.03 0.19,0 0.37,-0.02 0.55,-0.07 0.22,-0.07 0.43,-0.18 0.61,-0.34 0.12,-0.12 0.23,-0.26 0.28,-0.43 -0.03,0 -0.07,0.01 -0.1,0.03 -0.16,0.06 -0.23,0.25 -0.26,0.4 -0.01,0.02 -0.02,0.04 -0.05,0.04 -0.02,0 -0.04,-0.01 -0.05,-0.03 -0.07,-0.13 -0.12,-0.27 -0.18,-0.4 -0.04,-0.08 -0.09,-0.17 -0.14,-0.25 0,-0.01 -0.01,-0.01 -0.01,-0.01l-0.03 -0.02 0.07 0.09c0.02,0.02 0.02,0.05 0,0.07 -0.01,0.02 -0.04,0.02 -0.07,0.01l-0.12 -0.09 0.09 0.15c0.01,0.03 0.01,0.06 -0.01,0.07 -0.03,0.02 -0.06,0.02 -0.07,0l-0.16 -0.15 0.04 0.29c0,0.03 -0.02,0.05 -0.04,0.06 -0.03,0.01 -0.06,-0.01 -0.07,-0.03l-0.1 -0.26 -0.03 0.21c0,0.03 -0.03,0.05 -0.05,0.05 -0.03,0 -0.05,-0.02 -0.06,-0.05l-0.03 -0.24c0,0 -0.01,0 -0.02,0l-0.08 0.21c-0.01,0.02 -0.04,0.04 -0.07,0.03 -0.02,-0.01 -0.04,-0.03 -0.04,-0.06l0.04 -0.22c-0.01,0 -0.01,0 -0.02,-0.01l-0.14 0.19c-0.02,0.02 -0.05,0.03 -0.07,0.01 -0.03,-0.01 -0.04,-0.04 -0.03,-0.07l0.09 -0.2c0,0 -0.01,0 -0.01,0l-0.2 0.15c-0.03,0.01 -0.06,0.01 -0.07,-0.01 -0.02,-0.02 -0.03,-0.05 -0.01,-0.07l0.15 -0.19c0,0 -0.01,0 -0.01,-0.01l-0.2 0.08c-0.03,0.01 -0.05,0 -0.07,-0.03 -0.01,-0.02 0,-0.05 0.02,-0.07l0.13 -0.09 -0.15 0.03c-0.02,0.01 -0.05,-0.01 -0.06,-0.03 -0.01,-0.03 0,-0.06 0.03,-0.07l0.13 -0.06 -0.14 0c-0.03,0 -0.05,-0.03 -0.05,-0.05 0,-0.03 0.01,-0.05 0.04,-0.06l0.06 -0.02 -0.05 -0.01c-0.02,0 -0.04,-0.02 -0.04,-0.05 0,-0.02 0.01,-0.04 0.03,-0.05 -0.02,-0.01 -0.03,-0.02 -0.03,-0.04 0.01,-0.03 0.03,-0.05 0.05,-0.05l0.09 -0.01c0,-0.06 0.01,-0.11 0.02,-0.16 0.06,-0.25 0.22,-0.44 0.42,-0.6 -0.05,-0.07 -0.09,-0.15 -0.12,-0.23 -0.05,-0.11 -0.07,-0.24 -0.05,-0.36 0,-0.03 0.03,-0.05 0.06,-0.05 0.02,0.01 0.05,0.03 0.05,0.06 0,0.13 0.08,0.29 0.15,0.4 0,0 0,0 0,0 0.04,0.07 0.09,0.13 0.15,0.17 0,0 0,0 0,0 0.04,0.03 0.08,0.05 0.12,0.06 0.14,0.05 0.31,0.04 0.46,0.03 0.22,-0.01 0.48,-0.04 0.67,0.09 0.01,-0.01 0.02,-0.02 0.03,-0.03 0.04,-0.04 0.08,-0.07 0.12,-0.08 0.03,-0.01 0.06,-0.01 0.09,-0.01 0.02,-0.07 -0.03,-0.14 -0.09,-0.2 0,-0.01 0,-0.01 -0.01,-0.02 0,-0.02 -0.01,-0.04 -0.01,-0.06 0,0 0,-0.04 -0.01,-0.04 -0.06,-0.05 -0.11,-0.1 -0.17,-0.15 -0.06,-0.04 -0.12,-0.09 -0.18,-0.12 -0.02,-0.01 -0.03,-0.03 -0.03,-0.05 0,-0.02 -0.01,-0.04 -0.03,-0.06 -0.04,-0.03 -0.11,-0.04 -0.15,-0.05 -0.06,-0.01 -0.12,-0.03 -0.17,-0.06 -0.21,-0.13 -0.44,-0.21 -0.65,-0.33 0.08,0.08 0.17,0.15 0.24,0.2 0.02,0.02 0.03,0.05 0.01,0.07 -0.02,0.03 -0.05,0.03 -0.07,0.02 -0.15,-0.09 -0.31,-0.14 -0.47,-0.2 -0.19,-0.07 -0.37,-0.14 -0.53,-0.24 0.12,0.21 0.33,0.44 0.53,0.5 0.03,0 0.04,0.03 0.04,0.06 -0.01,0.03 -0.03,0.04 -0.06,0.04 -0.07,0 -0.15,-0.01 -0.21,-0.04 -0.25,0.04 -0.46,0.12 -0.65,0.25l0 0zm1.72 -0.25c0.05,0.02 0.1,0.04 0.14,0.07 0.05,0.04 0.1,0.08 0.15,0.11 0.07,0.04 0.14,0.06 0.22,0.06 0.02,-0.01 0.05,0.02 0.05,0.04 0.01,0.03 -0.01,0.06 -0.04,0.06 -0.09,0.03 -0.19,0.05 -0.28,0.03 -0.14,-0.04 -0.23,-0.17 -0.3,-0.28 -0.01,-0.02 -0.01,-0.05 0,-0.06 0.02,-0.02 0.04,-0.03 0.06,-0.03l0 0zm1.96 1.87c-0.02,-0.04 -0.03,-0.08 -0.02,-0.12 0.03,-0.09 0.11,-0.13 0.21,-0.15 -0.06,-0.02 -0.13,-0.03 -0.19,-0.05 -0.49,-0.1 -0.99,-0.18 -1.49,-0.23 -0.35,-0.03 -0.72,-0.05 -1.08,-0.03 0.28,0.05 0.52,0.2 0.72,0.41 0.16,0.18 0.29,0.4 0.38,0.63 0.1,-0.21 0.34,-0.27 0.58,-0.25 0,0 0,0 0.01,0 0,0.01 0,0.01 0,0.01 0.17,0.02 0.34,0.07 0.49,0.15 0,-0.02 -0.01,-0.03 -0.02,-0.04 -0.04,-0.05 -0.07,-0.11 -0.05,-0.18 0.02,-0.07 0.1,-0.11 0.17,-0.12 0.05,-0.01 0.11,-0.02 0.17,-0.03 0.04,0 0.08,0 0.12,0l0 0z"/>
    <path class="fil1" d="M5.25 4.82l0.03 -0.05 0.3 0.23 -0.03 0.04 -0.3 -0.22zm-0.36 0.37l0.16 -0.15 0.26 0.27 -0.03 0.04 -0.23 -0.25 -0.13 0.12 -0.03 -0.03 0 0zm-0.45 0.51c-0.03,-0.05 -0.03,-0.09 -0.02,-0.13 0.01,-0.06 0.05,-0.1 0.1,-0.13 0.05,-0.03 0.1,-0.03 0.16,-0.02 0.05,0.01 0.09,0.04 0.11,0.09 0.03,0.05 0.04,0.1 0.02,0.16 -0.02,0.05 -0.05,0.09 -0.1,0.12 -0.03,0.01 -0.05,0.02 -0.08,0.03 -0.03,0 -0.05,0 -0.08,-0.01l0.02 -0.05c0.02,0.01 0.04,0.01 0.06,0.01 0.01,0 0.04,-0.01 0.05,-0.02 0.04,-0.02 0.07,-0.05 0.08,-0.09 0.01,-0.04 0.01,-0.08 -0.01,-0.12 -0.02,-0.04 -0.05,-0.06 -0.09,-0.08 -0.04,0 -0.08,0 -0.12,0.02 -0.03,0.02 -0.06,0.05 -0.07,0.08 -0.01,0.03 -0.01,0.06 0,0.1l0.13 -0.07 0.02 0.04 -0.17 0.09c0,0 -0.01,-0.01 -0.01,-0.02l0 0zm-0.67 0.26c-0.01,-0.06 0,-0.11 0.03,-0.16 0.03,-0.05 0.07,-0.08 0.12,-0.09 0.06,-0.02 0.11,-0.01 0.16,0.01 0.04,0.03 0.07,0.07 0.08,0.12 0.02,0.06 0.01,0.11 -0.02,0.16 -0.03,0.05 -0.07,0.08 -0.12,0.1 -0.06,0.01 -0.11,0.01 -0.15,-0.02 -0.05,-0.03 -0.08,-0.07 -0.1,-0.12zm0.35 -0.1c-0.02,-0.04 -0.04,-0.07 -0.07,-0.1 -0.03,-0.01 -0.07,-0.02 -0.11,-0.01 -0.05,0.01 -0.08,0.04 -0.1,0.08 -0.02,0.03 -0.03,0.07 -0.01,0.11 0,0.05 0.03,0.08 0.06,0.1 0.04,0.02 0.07,0.02 0.12,0.01 0.04,-0.01 0.07,-0.04 0.09,-0.07 0.02,-0.04 0.03,-0.08 0.02,-0.12zm-0.71 -0.04l0.05 0 0 0.39 -0.06 0 -0.19 -0.29 0 0 0 0.07 0 0.23 -0.05 0 0 -0.39 0.05 0 0.2 0.31 0 0 0 -0.08 0 -0.24 0 0zm-0.91 -0.07l0.05 0.01 -0.13 0.37 -0.06 -0.02 -0.07 -0.34 -0.01 0 -0.02 0.07 -0.07 0.22 -0.05 -0.01 0.13 -0.37 0.05 0.01 0.08 0.36 0 0 0.02 -0.07 0.08 -0.23 0 0zm-0.89 0.02l0.03 -0.04 0.14 0.09 0.07 -0.1 -0.13 -0.08 0.02 -0.04 0.14 0.08 0.07 -0.11 -0.15 -0.09 0.03 -0.04 0.19 0.11 -0.22 0.34 -0.19 -0.12 0 0zm-0.34 -0.32l0.25 -0.26 0.03 0.04 -0.24 0.25 0.08 0.07 -0.04 0.04 -0.19 -0.18 0.04 -0.04 0.07 0.08 0 0zm-0.55 -0.61l-0.03 -0.04 0.39 -0.15 0.03 0.04 -0.17 0.22 0 0 0.26 -0.08 0.03 0.04 -0.27 0.31 -0.03 -0.04 0.21 -0.24 0 -0.01 -0.26 0.09 -0.02 -0.04 0.16 -0.22 0 0 -0.3 0.12 0 0zm-0.08 -0.8c0.05,-0.02 0.11,-0.02 0.15,0.01 0.05,0.02 0.08,0.06 0.1,0.11 0.02,0.05 0.01,0.11 -0.02,0.15 -0.03,0.05 -0.07,0.09 -0.12,0.11 -0.06,0.02 -0.11,0.01 -0.16,-0.01 -0.05,-0.02 -0.08,-0.06 -0.09,-0.11 -0.02,-0.06 -0.01,-0.11 0.01,-0.16 0.03,-0.05 0.07,-0.08 0.13,-0.1l0 0zm0.09 0.33c0.05,-0.02 0.08,-0.04 0.1,-0.08 0.02,-0.04 0.02,-0.07 0.01,-0.11 -0.01,-0.04 -0.03,-0.07 -0.07,-0.09 -0.04,-0.02 -0.08,-0.02 -0.12,0 -0.04,0.01 -0.08,0.04 -0.09,0.07 -0.02,0.04 -0.03,0.08 -0.02,0.12 0.01,0.04 0.04,0.07 0.07,0.09 0.04,0.01 0.08,0.01 0.12,0l0 0zm-0.29 -0.67l0.14 -0.02 0 -0.08c-0.01,-0.02 -0.01,-0.03 -0.02,-0.05 -0.02,-0.01 -0.03,-0.02 -0.06,-0.01 -0.01,0 -0.03,0.01 -0.04,0.02 -0.01,0.02 -0.02,0.03 -0.02,0.05l0 0.09 0 0zm0.35 -0.04l0 0.05 -0.39 0.04 -0.01 -0.13c0,-0.03 0.01,-0.06 0.03,-0.09 0.02,-0.03 0.05,-0.04 0.08,-0.04 0.03,-0.01 0.05,0 0.07,0.02 0.03,0.01 0.04,0.03 0.05,0.06l0 0 0.15 -0.12 0.01 0 0 0.05 -0.16 0.12 0.01 0.06 0.16 -0.02 0 0zm-0.35 -0.73l0.01 -0.06 0 0 0.15 0.16 0.23 -0.13 0.01 0 -0.01 0.06 -0.2 0.11 0.06 0.06 0.11 0.01 -0.01 0.05 -0.38 -0.03 0 -0.05 0.2 0.02 0 -0.01 -0.17 -0.19zm0.79 -0.92l-0.03 0.04 -0.32 -0.22 0.04 -0.04 0.36 0 0 0 -0.06 -0.04 -0.19 -0.12 0.03 -0.04 0.32 0.21 -0.03 0.04 -0.38 -0.01 0 0 0.06 0.04 0.2 0.14 0 0zm0.25 -0.77l0.06 0.17 0.1 -0.08 -0.16 -0.09 0 0zm0.11 0.32l-0.04 0.04 -0.13 -0.39 0.04 -0.03 0.36 0.18 -0.04 0.04 -0.1 -0.05 -0.12 0.11 0.03 0.1 0 0zm0.38 -0.69l0.16 0.29 -0.05 0.03 -0.16 -0.29 -0.09 0.05 -0.03 -0.04 0.24 -0.14 0.02 0.05 -0.09 0.05 0 0zm0.54 0.11l-0.05 0.01 -0.12 -0.35 0.05 -0.02 0.12 0.36zm0.63 -0.37c0,0.06 -0.01,0.11 -0.04,0.16 -0.04,0.04 -0.08,0.07 -0.13,0.08 -0.06,0.02 -0.11,0 -0.15,-0.03 -0.05,-0.03 -0.07,-0.07 -0.08,-0.13 -0.01,-0.05 0,-0.1 0.04,-0.15 0.03,-0.04 0.07,-0.07 0.13,-0.08 0.06,-0.02 0.11,0 0.15,0.03 0.04,0.03 0.07,0.07 0.08,0.12zm-0.35 0.07c0,0.05 0.02,0.08 0.06,0.1 0.03,0.03 0.07,0.03 0.11,0.03 0.04,-0.01 0.07,-0.03 0.1,-0.07 0.02,-0.03 0.03,-0.07 0.03,-0.11 -0.01,-0.05 -0.03,-0.08 -0.06,-0.1 -0.03,-0.03 -0.07,-0.03 -0.11,-0.03 -0.05,0.01 -0.08,0.03 -0.1,0.07 -0.03,0.03 -0.04,0.07 -0.03,0.11zm0.69 0.12l-0.05 -0.01 0.04 -0.39 0.06 0.01 0.16 0.31 0 0 0.01 -0.08 0.02 -0.22 0.05 0 -0.04 0.39 -0.05 -0.01 -0.16 -0.32 -0.01 0 0 0.07 -0.03 0.25zm0.73 -0.05l-0.16 -0.04 0.01 -0.04 0.17 0.04 -0.02 0.04zm0.48 0.25c-0.01,0.03 -0.04,0.05 -0.07,0.05 -0.03,0.01 -0.07,0.01 -0.1,-0.01 -0.03,-0.01 -0.05,-0.03 -0.06,-0.06 -0.01,-0.03 -0.02,-0.06 -0.01,-0.09l0.05 0c0,0.02 0,0.03 0,0.04 0,0.01 0,0.02 0.01,0.03 0,0.01 0.01,0.02 0.01,0.02 0.01,0.01 0.01,0.02 0.03,0.02 0.02,0.01 0.03,0.01 0.05,0.01 0.02,-0.01 0.04,-0.02 0.04,-0.03 0.01,-0.02 0.01,-0.04 0.01,-0.05 -0.01,-0.02 -0.02,-0.03 -0.04,-0.06 -0.02,-0.02 -0.04,-0.04 -0.04,-0.04 -0.03,-0.04 -0.03,-0.07 -0.01,-0.11 0.01,-0.03 0.03,-0.04 0.06,-0.05 0.03,-0.01 0.06,-0.01 0.09,0 0.03,0.01 0.05,0.03 0.06,0.06 0.01,0.02 0.02,0.04 0.01,0.07l-0.05 0c0,-0.02 0,-0.04 -0.01,-0.05 0,-0.01 -0.01,-0.03 -0.03,-0.03 -0.02,-0.01 -0.03,-0.01 -0.05,-0.01 -0.02,0.01 -0.03,0.01 -0.04,0.03 0,0.01 0,0.02 0,0.04 0.01,0.01 0.02,0.03 0.05,0.06 0.03,0.03 0.05,0.06 0.05,0.08 0.01,0.02 0,0.05 -0.01,0.08l0 0zm0.49 0.03l-0.22 0.28 -0.04 -0.03 0.22 -0.28 -0.09 -0.06 0.04 -0.04 0.2 0.16 -0.03 0.03 -0.08 -0.06 0 0zm0.37 0.38l-0.18 0.07 0.08 0.09 0.1 -0.16 0 0 0 0zm-0.33 0.13l-0.04 -0.04 0.4 -0.15 0.03 0.04 -0.21 0.37 -0.03 -0.04 0.05 -0.1 -0.1 -0.12 -0.1 0.04zm0.66 0.34l-0.3 0.17 -0.03 -0.04 0.31 -0.18 -0.05 -0.09 0.04 -0.02 0.13 0.23 -0.05 0.02 -0.05 -0.09zm0.28 0.59l-0.05 0.01 -0.05 -0.16 -0.12 0.04 0.05 0.15 -0.05 0.02 -0.04 -0.16 -0.12 0.05 0.05 0.16 -0.05 0.02 -0.06 -0.21 0.37 -0.14 0.07 0.22 0 0z"/>
    <path class="fil2" d="M0.77 2.35c0.02,0 0.03,0.02 0.03,0.04 0,0.01 -0.01,0.03 -0.03,0.03 -0.02,0 -0.03,-0.02 -0.03,-0.03 0,-0.02 0.01,-0.04 0.03,-0.04z"/>
   </g>
  </g>
 </g>
</svg>
