<?xml version="1.0" encoding="UTF-8" standalone="no"?>
<svg
   xmlns:dc="http://purl.org/dc/elements/1.1/"
   xmlns:cc="http://creativecommons.org/ns#"
   xmlns:rdf="http://www.w3.org/1999/02/22-rdf-syntax-ns#"
   xmlns:svg="http://www.w3.org/2000/svg"
   xmlns="http://www.w3.org/2000/svg"
   xmlns:sodipodi="http://sodipodi.sourceforge.net/DTD/sodipodi-0.dtd"
   xmlns:inkscape="http://www.inkscape.org/namespaces/inkscape"
   version="1.0"
   width="512.000000pt"
   height="512.000000pt"
   viewBox="0 0 512.000000 512.000000"
   preserveAspectRatio="xMidYMid meet"
   id="svg12"
   sodipodi:docname="android-chrome-512x512.svg"
   inkscape:version="1.0.2 (e86c870879, 2021-01-15)">
  <defs
     id="defs16" />
  <sodipodi:namedview
     pagecolor="#ffffff"
     bordercolor="#666666"
     borderopacity="1"
     objecttolerance="10"
     gridtolerance="10"
     guidetolerance="10"
     inkscape:pageopacity="0"
     inkscape:pageshadow="2"
     inkscape:window-width="1920"
     inkscape:window-height="1064"
     id="namedview14"
     showgrid="false"
     inkscape:zoom="0.70710678"
     inkscape:cx="254.10828"
     inkscape:cy="239.93488"
     inkscape:window-x="0"
     inkscape:window-y="16"
     inkscape:window-maximized="0"
     inkscape:current-layer="svg12" />
  <metadata
     id="metadata2">
Created by potrace 1.16, written by Peter Selinger 2001-2019
<rdf:RDF>
  <cc:Work
     rdf:about="">
    <dc:format>image/svg+xml</dc:format>
    <dc:type
       rdf:resource="http://purl.org/dc/dcmitype/StillImage" />
  </cc:Work>
</rdf:RDF>
</metadata>
  <g
     transform="translate(0.000000,512.000000) scale(0.100000,-0.100000)"
     fill="#000000"
     stroke="none"
     id="g10"
     style="fill:#613b92;fill-opacity:1">
    <path
       d="M7 5113 c-4 -3 -7 -1155 -7 -2560 l0 -2553 2555 0 2555 0 2 637 3 636 -93 44 c-179 83 -402 147 -584 168 l-58 6 0 -39 c0 -117 -64 -309 -152 -455 -165 -275 -396 -475 -733 -638 -310 -150 -641 -218 -1008 -206 -207 6 -359 29 -547 81 -332 92 -557 222 -796 460 -274 274 -353 427 -356 681 l-1 110 -19 -60 c-26 -80 -21 -259 10 -355 12 -35 19 -66 17 -68 -8 -8 -85 167 -114 261 -52 163 -73 274 -78 408 -7 154 10 243 67 357 l38 77 -49 -53 c-103 -112 -157 -284 -146 -472 4 -58 9 -116 13 -130 5 -17 3 -22 -4 -15 -13 13 -29 116 -37 240 -9 129 11 415 35 509 56 220 221 438 460 609 24 17 24 17 -15 2 -145 -56 -333 -224 -414 -368 -57 -102 -106 -246 -130 -383 -25 -149 -35 -106 -28 124 4 124 12 207 27 277 50 236 147 455 251 569 104 113 287 207 436 222 l60 7 27 -144 c15 -79 125 -666 244 -1304 l218 -1160 272 -3 272 -2 5 22 c3 13 68 367 145 787 77 420 143 768 146 772 10 17 34 9 39 -13 3 -13 70 -369 149 -793 l142 -770 275 -3 275 -2 258 1377 c142 758 260 1390 263 1406 l5 27 -281 0 c-216 0 -283 -3 -286 -12 -2 -7 -52 -353 -110 -768 -58 -415 -108 -767 -111 -783 -4 -18 -12 -27 -25 -27 -10 0 -19 2 -19 5 0 6 -268 1466 -281 1533 l-10 52 -257 -2 -257 -3 -147 -790 c-81 -434 -147 -791 -148 -792 0 -2 -9 -3 -19 -3 -16 0 -21 9 -26 43 -4 23 -55 380 -114 792 l-107 750 -287 3 c-158 1 -287 -1 -287 -5 1 -5 7 -37 15 -73 20 -92 21 -90 -27 -90 -82 0 -238 -30 -315 -60 -187 -72 -301 -194 -358 -380 l-26 -85 5 75 c17 283 290 686 553 819 59 30 211 67 331 82 97 11 204 6 312 -16 14 -3 -3 8 -36 25 -92 46 -188 63 -319 57 -232 -11 -417 -92 -636 -277 l-53 -45 34 49 c54 75 204 230 294 302 223 180 512 306 818 358 87 15 103 15 155 2 32 -8 78 -17 103 -21 l45 -6 -72 39 c-179 97 -346 260 -498 487 -69 103 -180 316 -173 335 1 5 39 -17 83 -50 147 -111 368 -226 590 -308 358 -132 482 -179 580 -223 l110 -49 -55 47 c-104 89 -212 198 -261 263 -55 73 -109 176 -109 210 0 19 10 13 69 -43 110 -104 235 -179 576 -346 176 -87 355 -179 399 -206 65 -39 102 -53 219 -82 77 -19 157 -43 177 -53 48 -25 88 -72 96 -114 5 -28 18 -42 74 -80 78 -52 292 -222 361 -287 41 -39 48 -51 57 -107 9 -48 19 -72 47 -105 58 -68 90 -143 90 -212 0 -33 -6 -74 -13 -91 -13 -30 -14 -30 -72 -26 -77 6 -126 -18 -205 -99 l-60 -61 125 7 c248 13 493 -26 658 -105 81 -38 249 -147 272 -176 7 -8 15 -14 19 -14 3 0 5 544 3 1210 l-2 1210 -2548 0 c-1402 0 -2552 -3 -2555 -7z"
       id="path4"
       style="fill:#613b92;fill-opacity:1" />
    <path
       d="M3140 4045 c0 -15 90 -136 139 -189 102 -107 185 -136 333 -116 88 12 128 30 67 30 -92 0 -202 50 -321 147 -46 37 -96 75 -113 84 -40 24 -105 51 -105 44z"
       id="path6"
       style="fill:#613b92;fill-opacity:1" />
    <path
       d="M5082 1647 c-28 -30 -29 -94 -2 -147 11 -21 23 -41 27 -43 5 -3 8 44 8 104 0 60 -3 109 -6 109 -3 0 -15 -10 -27 -23z"
       id="path8"
       style="fill:#613b92;fill-opacity:1" />
  </g>
</svg>
